<?xml version="1.0" encoding="UTF-8" standalone="no"?>
<!-- Created with Inkscape (http://www.inkscape.org/) -->

<svg
   width="70mm"
   height="70mm"
   viewBox="0 0 70 70"
   version="1.1"
   id="svg5"
   inkscape:version="1.1.2 (b8e25be8, 2022-02-05)"
   sodipodi:docname="paper-button.svg"
   xmlns:inkscape="http://www.inkscape.org/namespaces/inkscape"
   xmlns:sodipodi="http://sodipodi.sourceforge.net/DTD/sodipodi-0.dtd"
   xmlns="http://www.w3.org/2000/svg"
   xmlns:svg="http://www.w3.org/2000/svg">
  <sodipodi:namedview
     id="namedview7"
     pagecolor="#ffffff"
     bordercolor="#666666"
     borderopacity="1.0"
     inkscape:pageshadow="2"
     inkscape:pageopacity="0.0"
     inkscape:pagecheckerboard="0"
     inkscape:document-units="mm"
     showgrid="false"
     inkscape:zoom="0.4792789"
     inkscape:cx="-279.58669"
     inkscape:cy="-297.32166"
     inkscape:window-width="1440"
     inkscape:window-height="763"
     inkscape:window-x="0"
     inkscape:window-y="25"
     inkscape:window-maximized="1"
     inkscape:current-layer="layer1" />
  <defs
     id="defs2">
    <rect
       x="15.648509"
       y="534.13574"
       width="135.62041"
       height="58.421101"
       id="rect1740" />
    <rect
       x="15.648509"
       y="534.13574"
       width="180.47948"
       height="58.421101"
       id="rect1740-7" />
    <rect
       x="15.648509"
       y="534.13574"
       width="219.07912"
       height="81.372246"
       id="rect1740-3" />
  </defs>
  <g
     inkscape:label="Layer 1"
     inkscape:groupmode="layer"
     id="layer1"
     transform="translate(-158.21561,-132.82156)">
    <circle
       id="path13847-0"
       cx="193.21561"
       cy="167.82156"
       r="35"
       style="fill:#3131ad;fill-opacity:1;stroke:none;stroke-width:2.80238;stroke-miterlimit:4;stroke-dasharray:none;stroke-opacity:1" />
    <g
       id="g14975"
       transform="translate(67.682919,40.64549)"
       style="fill:#ffffff;fill-opacity:1">
      <text
         xml:space="preserve"
         transform="matrix(0.26458333,0,0,0.26458333,106.05861,1.1040892)"
         id="text1738-1"
         style="font-style:normal;font-weight:normal;font-size:40px;line-height:1.25;font-family:sans-serif;white-space:pre;shape-inside:url(#rect1740-7);fill:#ffffff;fill-opacity:1;stroke:none"><tspan
           x="15.648438"
           y="570.62993"
           id="tspan15290"><tspan
             style="font-family:'Apple SD Gothic Neo';-inkscape-font-specification:'Apple SD Gothic Neo, Normal'"
             id="tspan15288">PAPER</tspan></tspan></text>
      <path
         style="fill:#ffffff;fill-opacity:1;stroke-width:0.264583"
         d="m 122.00266,141.45302 c -4.50833,-1.21236 -8.3006,-5.24487 -9.2603,-9.84692 -0.18007,-0.8635 -0.29201,-4.82727 -0.2914,-10.31875 8e-4,-8.32434 0.0347,-8.97198 0.50869,-9.74929 0.78079,-1.28047 2.35261,-1.66126 4.09595,-0.99228 0.35826,0.13747 0.4216,-0.0905 0.42244,-1.52023 0.001,-2.09439 0.60367,-3.21098 1.97696,-3.66421 0.88883,-0.29333 1.55757,-0.25329 2.62768,0.15735 0.3071,0.11785 0.42146,0.003 0.42146,-0.4222 0,-0.32116 0.40481,-0.98875 0.89958,-1.48352 0.74906,-0.74905 1.09339,-0.89958 2.0578,-0.89958 0.63701,0 1.42351,0.18582 1.74776,0.41294 0.74758,0.52362 1.38028,1.73602 1.38028,2.64494 0,0.56848 0.0885,0.66503 0.46302,0.50488 1.04659,-0.44759 2.03491,-0.44526 2.87431,0.007 1.47476,0.79422 1.68975,1.63624 1.68975,6.61816 v 4.4192 l 0.91881,-0.80673 c 1.71674,-1.50732 3.64182,-1.59971 3.9952,-0.19175 0.0868,0.34571 0.10994,3.88438 0.0515,7.86372 -0.0975,6.63569 -0.15422,7.36491 -0.68496,8.80129 -1.54866,4.19121 -5.01495,7.41171 -9.17533,8.52471 -1.70947,0.45732 -4.90444,0.42949 -6.71919,-0.0585 z m 6.49424,-1.0087 c 3.25431,-0.86649 6.11096,-3.24825 7.64947,-6.3778 1.2783,-2.60026 1.43902,-3.84542 1.43902,-11.14862 v -6.44618 h -0.65225 c -0.82454,0 -2.49023,1.44504 -2.95904,2.56706 -0.22392,0.53593 -0.35746,1.90304 -0.35746,3.65955 0,1.54221 -0.11474,3.0184 -0.25497,3.28043 -0.15109,0.28232 -0.69998,0.54758 -1.3472,0.65108 -1.5388,0.24606 -2.90811,1.00794 -4.01644,2.23473 -1.27149,1.4074 -1.56421,2.00602 -1.75825,3.59569 -0.13557,1.11069 -0.25487,1.34167 -0.69293,1.34167 -0.46407,0 -0.51813,-0.14648 -0.43945,-1.19062 0.24697,-3.27758 3.11847,-6.38005 6.46894,-6.98929 l 1.00241,-0.18227 -0.0764,-8.74099 -0.0764,-8.74099 -0.62462,-0.50552 c -0.84945,-0.68748 -1.78347,-0.63503 -2.5624,0.14391 l -0.64943,0.64943 v 6.23628 6.23629 l 0.68296,0.25966 c 1.20363,0.45762 0.601,0.91008 -1.21213,0.91008 -1.83486,0 -2.37507,-0.42673 -1.21141,-0.95693 l 0.68224,-0.31085 v -7.72706 c 0,-7.41662 -0.022,-7.75506 -0.54837,-8.4242 -0.69357,-0.88173 -1.94151,-0.93588 -2.80801,-0.12185 l -0.61237,0.57529 v 7.58433 7.58432 l 0.68224,0.31085 c 1.15309,0.52538 0.62242,0.9258 -1.22697,0.92583 -1.33154,2e-5 -1.72159,-0.09 -1.78361,-0.41156 -0.0493,-0.25547 0.17653,-0.47581 0.59531,-0.58092 l 0.6747,-0.16934 v -6.06793 c 0,-6.44153 -0.11266,-7.14103 -1.23225,-7.65115 -0.95443,-0.43486 -1.36681,-0.36459 -2.08707,0.35568 l -0.64943,0.64943 v 6.89774 6.89774 l 0.68296,0.25966 c 1.20703,0.45892 0.60094,0.91787 -1.21213,0.91787 -1.81307,0 -2.41916,-0.45895 -1.21213,-0.91787 l 0.68297,-0.25966 v -4.34286 c 0,-4.84361 -0.14598,-5.3076 -1.7684,-5.62088 -0.67947,-0.1312 -0.97366,-0.0313 -1.52136,0.51634 l -0.67899,0.679 0.003,8.94172 c 0.003,9.57845 0.0889,10.3733 1.38874,12.91046 2.53612,4.95016 8.27468,7.53027 13.59672,6.11322 z"
         id="path956"
         sodipodi:nodetypes="sscsscssssssscsscsscsssscsscsssssssssscccsscccssscssscccsssscssscccssscsssccccc" />
    </g>
  </g>
</svg>
