<?xml version="1.0" encoding="UTF-8" standalone="no"?>
<!-- Created with Inkscape (http://www.inkscape.org/) -->

<svg
   width="70mm"
   height="70mm"
   viewBox="0 0 70 70.000001"
   version="1.1"
   id="svg13733"
   inkscape:version="1.1.2 (b8e25be8, 2022-02-05)"
   sodipodi:docname="rock-button.svg"
   xmlns:inkscape="http://www.inkscape.org/namespaces/inkscape"
   xmlns:sodipodi="http://sodipodi.sourceforge.net/DTD/sodipodi-0.dtd"
   xmlns="http://www.w3.org/2000/svg"
   xmlns:svg="http://www.w3.org/2000/svg">
  <sodipodi:namedview
     id="namedview13735"
     pagecolor="#ffffff"
     bordercolor="#666666"
     borderopacity="1.0"
     inkscape:pageshadow="2"
     inkscape:pageopacity="0.0"
     inkscape:pagecheckerboard="0"
     inkscape:document-units="mm"
     showgrid="false"
     inkscape:zoom="0.48195146"
     inkscape:cx="-152.50498"
     inkscape:cy="320.5717"
     inkscape:window-width="1440"
     inkscape:window-height="763"
     inkscape:window-x="0"
     inkscape:window-y="25"
     inkscape:window-maximized="1"
     inkscape:current-layer="layer1" />
  <defs
     id="defs13730">
    <rect
       x="15.648509"
       y="534.13574"
       width="135.62041"
       height="58.421101"
       id="rect1740" />
    <rect
       x="15.648509"
       y="534.13574"
       width="219.07912"
       height="81.372246"
       id="rect1740-3" />
  </defs>
  <g
     inkscape:label="Layer 1"
     inkscape:groupmode="layer"
     id="layer1"
     transform="translate(-139.46747,-25.15892)">
    <circle
       id="path13847-4"
       cx="174.46747"
       cy="60.15892"
       r="35"
       style="fill:#3131ad;fill-opacity:1;stroke:none;stroke-width:2.80238;stroke-miterlimit:4;stroke-dasharray:none;stroke-opacity:1" />
    <g
       id="g13987"
       transform="translate(39.417552,-99.046252)"
       style="fill:#ffffff;fill-opacity:1">
      <path
         d="m 131.60755,167.7722 c -2.03884,-0.72777 -3.57805,-1.73172 -5.06426,-3.30317 -2.85092,-3.01443 -3.25749,-4.69828 -3.26275,-13.51292 -0.004,-7.0232 0.0895,-7.60228 1.37637,-8.50361 0.77118,-0.54016 2.57106,-0.52798 3.35728,0.0227 0.57747,0.40447 0.63942,0.40447 0.86577,0 0.61591,-1.10057 3.01695,-1.5953 4.09107,-0.84295 0.50247,0.35194 0.60668,0.32793 1.1675,-0.26904 0.9706,-1.03316 2.34753,-1.33548 3.52898,-0.77485 0.53529,0.25401 1.09276,0.68514 1.23883,0.95807 0.24529,0.45833 0.32442,0.4658 1.03604,0.0978 2.09482,-1.08327 4.20585,0.0634 4.43103,2.40688 0.10731,1.11684 0.24553,1.38687 0.90304,1.76423 1.29909,0.74557 1.54872,1.79217 1.54286,6.46832 -0.007,5.24924 -0.31041,7.3812 -1.35396,9.50095 -1.06828,2.16999 -3.3497,4.35109 -5.70846,5.45746 -1.55422,0.729 -2.13412,0.85319 -4.30943,0.92296 -1.90443,0.0611 -2.83496,-0.0341 -3.83991,-0.39284 z m 7.61093,-1.45692 c 1.78161,-0.81839 4.26154,-3.0624 5.01368,-4.53671 1.21447,-2.38058 1.30191,-2.96851 1.29759,-8.72472 -0.004,-4.82268 -0.0611,-5.58514 -0.45402,-6.01927 -0.41729,-0.46111 -0.92785,-0.4971 -7.05212,-0.4971 h -6.60226 l 0.17857,0.71147 c 0.29103,1.15958 1.20891,2.22758 2.36616,2.75314 0.87075,0.39544 1.74073,0.49366 4.41385,0.49833 1.83114,0.003 3.40051,0.077 3.4875,0.16397 0.34854,0.34855 -0.16921,0.90017 -0.84489,0.90017 -2.51431,0 -5.47303,2.27403 -6.21663,4.77803 -0.22923,0.77189 -0.41678,1.67948 -0.41678,2.01687 0,0.70477 -0.72016,0.84849 -0.97137,0.19385 -0.26835,-0.69932 0.42565,-3.1803 1.22082,-4.36427 l 0.74841,-1.11437 -0.69344,-0.59648 c -0.67994,-0.58486 -0.70671,-0.58702 -1.37496,-0.11118 -1.39293,0.99185 -2.85405,0.88154 -4.12798,-0.31166 -0.54419,-0.5097 -0.60489,-0.51338 -1.43002,-0.0867 -0.82589,0.42709 -1.86124,0.42254 -2.9626,-0.013 -0.42226,-0.16699 -0.46302,0.0491 -0.46302,2.45492 0,4.65722 0.8715,7.26072 3.21489,9.60412 2.29886,2.29886 4.59043,3.19182 7.8976,3.07751 1.75788,-0.0608 2.58132,-0.23042 3.77102,-0.77691 z m -6.93288,-14.62489 c 0.42934,-0.22202 0.78061,-0.47788 0.78061,-0.56858 0,-0.0907 -0.43097,-0.58347 -0.95771,-1.09504 -1.47336,-1.43091 -2.1332,-3.46721 -1.37062,-4.22979 0.17463,-0.17463 0.82947,-0.3175 1.45521,-0.3175 1.11517,0 1.13771,-0.0177 1.13771,-0.89036 0,-2.01599 -1.9687,-2.98583 -3.31932,-1.63521 -0.62353,0.62353 -0.64943,0.78789 -0.64943,4.12139 v 3.47197 l 0.7734,0.77339 c 0.88846,0.88847 1.0825,0.92184 2.15015,0.36973 z m 4.61707,0.13909 c 0.0966,-0.15628 -0.19485,-0.26293 -0.71199,-0.26054 -0.66261,0.003 -0.779,0.0664 -0.47863,0.26054 0.51433,0.33238 0.9852,0.33238 1.19062,0 z m -9.24839,-1.1786 c 0.60883,-0.60883 0.64943,-0.82695 0.64943,-3.48868 0,-2.55097 -0.0584,-2.90142 -0.57528,-3.45161 -0.81327,-0.86568 -2.12829,-0.8265 -2.84509,0.0848 -0.46567,0.59199 -0.54837,1.06899 -0.54837,3.16256 0,2.66082 0.27023,3.60469 1.15466,4.03293 0.90989,0.44058 1.47245,0.35223 2.16465,-0.33998 z m 10.7036,-6.47268 c 0,-1.69311 -0.16572,-2.07359 -1.11756,-2.56581 -1.58793,-0.82115 -2.85119,0.37022 -2.85119,2.68891 v 1.17818 h 1.98438 1.98437 z m 5.02708,0.36321 c 0,-1.13857 -0.97435,-2.23693 -1.98437,-2.23693 -1.01002,0 -1.98438,1.09836 -1.98438,2.23693 v 0.93807 h 1.98438 1.98437 z"
         style="fill:#ffffff;fill-opacity:1;stroke-width:0.0700042"
         id="path1081" />
      <text
         xml:space="preserve"
         transform="matrix(0.26458333,0,0,0.26458333,117.81256,27.448774)"
         id="text1738"
         style="font-style:normal;font-weight:normal;font-size:40px;line-height:1.25;font-family:sans-serif;white-space:pre;shape-inside:url(#rect1740);fill:#ffffff;fill-opacity:1;stroke:none"><tspan
           x="15.648438"
           y="570.62993"
           id="tspan15322"><tspan
             style="font-family:'Apple SD Gothic Neo';-inkscape-font-specification:'Apple SD Gothic Neo, Normal'"
             id="tspan15320">ROCK</tspan></tspan></text>
    </g>
  </g>
</svg>
