<?xml version="1.0" encoding="UTF-8" standalone="no"?>
<!-- Created with Inkscape (http://www.inkscape.org/) -->

<svg
   width="70mm"
   height="70mm"
   viewBox="0 0 70 70"
   version="1.1"
   id="svg15128"
   inkscape:version="1.1.2 (b8e25be8, 2022-02-05)"
   sodipodi:docname="scissors-button.svg"
   xmlns:inkscape="http://www.inkscape.org/namespaces/inkscape"
   xmlns:sodipodi="http://sodipodi.sourceforge.net/DTD/sodipodi-0.dtd"
   xmlns="http://www.w3.org/2000/svg"
   xmlns:svg="http://www.w3.org/2000/svg">
  <sodipodi:namedview
     id="namedview15130"
     pagecolor="#ffffff"
     bordercolor="#666666"
     borderopacity="1.0"
     inkscape:pageshadow="2"
     inkscape:pageopacity="0.0"
     inkscape:pagecheckerboard="0"
     inkscape:document-units="mm"
     showgrid="false"
     inkscape:zoom="0.48195146"
     inkscape:cx="-283.22354"
     inkscape:cy="247.95028"
     inkscape:window-width="1312"
     inkscape:window-height="763"
     inkscape:window-x="0"
     inkscape:window-y="25"
     inkscape:window-maximized="0"
     inkscape:current-layer="layer1" />
  <defs
     id="defs15125">
    <rect
       x="15.648509"
       y="534.13574"
       width="219.07912"
       height="81.372246"
       id="rect1740-3" />
  </defs>
  <g
     inkscape:label="Layer 1"
     inkscape:groupmode="layer"
     id="layer1"
     transform="translate(-180.20148,-83.031433)">
    <circle
       id="path13847"
       cx="215.20148"
       cy="118.03143"
       r="35"
       style="fill:#3131ad;fill-opacity:1;stroke:none;stroke-width:2.80238;stroke-miterlimit:4;stroke-dasharray:none;stroke-opacity:1" />
    <g
       id="g14014"
       transform="translate(140.12341,-9.20793)"
       style="fill:#ffffff;fill-opacity:1">
      <path
         d="m 71.727606,141.49437 c -3.273801,-0.90311 -6.574081,-3.52635 -8.145362,-6.47438 -1.270339,-2.3834 -1.611003,-4.4672 -1.616298,-9.88681 -0.0049,-5.06581 0.19616,-6.09459 1.349248,-6.90224 0.684419,-0.47938 2.386039,-0.57255 3.13513,-0.17166 0.393481,0.21059 0.690319,0.0549 1.567061,-0.82183 0.960149,-0.96014 1.193401,-1.06842 2.07686,-0.96407 0.547378,0.0647 1.20359,0.20909 1.458249,0.32097 0.432979,0.19022 0.463031,-0.16811 0.463031,-5.52193 0,-6.14951 0.160128,-7.08662 1.35383,-7.92273 0.341739,-0.23936 1.13165,-0.43145 1.774198,-0.43145 0.964412,0 1.308741,0.15053 2.0578,0.89958 l 0.899581,0.89958 v 5.36223 c 0,2.94922 0.066,5.29625 0.146589,5.21563 0.0806,-0.0806 0.61064,-1.90236 1.177834,-4.04831 1.09991,-4.16157 1.52441,-4.91771 3.042,-5.41856 0.98405,-0.32476 2.03614,-0.0224 2.97172,0.85395 0.99424,0.93135 0.98718,1.92055 -0.0413,5.79696 -1.0612,3.99956 -1.07773,4.09986 -0.61606,3.73889 0.1819,-0.14223 0.7375,-0.39564 1.23465,-0.56315 0.74315,-0.25038 1.01686,-0.23055 1.53892,0.11151 l 0.63499,0.41607 -0.0897,7.85375 c -0.086,7.52861 -0.11563,7.91946 -0.71661,9.44124 -1.65126,4.18131 -5.22878,7.3769 -9.312584,8.31836 -1.568072,0.36149 -4.855901,0.30885 -6.343761,-0.1016 z m 7.748221,-1.47205 c 2.96203,-1.15869 5.57465,-3.84953 6.87255,-7.07829 0.57869,-1.43957 0.61478,-1.907 0.69452,-8.99298 0.0811,-7.20901 0.0662,-7.47448 -0.42105,-7.47448 -0.76925,0 -2.21016,1.08274 -2.81806,2.11757 -0.44279,0.75374 -0.56798,1.53274 -0.67576,4.20473 -0.1474,3.65412 -0.005,3.40952 -2.38125,4.09384 -2.643113,0.7612 -4.627353,3.04882 -4.940913,5.69634 -0.12822,1.08266 -0.257379,1.35002 -0.652201,1.35002 -0.379338,0 -0.491969,-0.19732 -0.490829,-0.8599 0.005,-3.2081 2.48692,-6.29201 5.863473,-7.28712 l 1.51348,-0.44605 0.0917,-2.91336 c 0.0814,-2.58584 0.26153,-3.5164 1.60246,-8.27751 0.83091,-2.95028 1.50698,-5.56966 1.50235,-5.82083 -0.0213,-1.15779 -1.64426,-2.11196 -2.74169,-1.61194 -0.34724,0.15822 -0.75931,0.5424 -0.9157,0.85375 -0.30392,0.60504 -3.477954,12.30197 -3.477954,12.81694 0,0.16873 0.303609,0.38297 0.674698,0.47611 0.431252,0.10824 0.645016,0.32345 0.592446,0.59646 -0.0655,0.34014 -0.427695,0.42713 -1.778436,0.42713 -1.829869,0 -2.43876,-0.45052 -1.230008,-0.91009 l 0.682969,-0.25966 v -7.86085 c 0,-7.70677 -0.0113,-7.87285 -0.575289,-8.47321 -0.813271,-0.86569 -2.128282,-0.82651 -2.845091,0.0848 -0.533371,0.67807 -0.54837,0.97793 -0.54837,10.96298 0,6.02862 -0.10649,10.54592 -0.25799,10.9444 -0.141891,0.37321 -0.647909,0.923 -1.124479,1.22175 -1.056071,0.66203 -2.668201,0.55107 -3.45722,-0.23795 -0.52854,-0.52854 -0.528921,-0.52853 -1.28905,0.0335 -0.792962,0.58626 -2.273642,0.75064 -3.33012,0.36971 -0.542362,-0.19556 -0.59531,-0.13502 -0.59531,0.68062 0,4.69005 2.80262,9.17224 6.981568,11.16556 2.354522,1.12308 2.666831,1.18353 5.58614,1.08115 1.675921,-0.0588 2.827681,-0.25814 3.888426,-0.67308 z M 66.291294,126.51153 c 0.680471,-0.53525 0.69714,-0.62067 0.69714,-3.57187 0,-2.67073 -0.0617,-3.08525 -0.529159,-3.55267 -0.787842,-0.78784 -2.204101,-0.70556 -2.891221,0.16797 -0.465659,0.59199 -0.54837,1.06899 -0.54837,3.16255 0,2.66082 0.27024,3.60469 1.15466,4.03294 0.861171,0.41698 1.353791,0.36139 2.11695,-0.23892 z m 5.07479,-0.10106 c 0.627549,-0.62755 0.649441,-0.774 0.649441,-4.34642 0,-3.67878 -0.003,-3.69969 -0.69714,-4.24536 -1.13389,-0.89191 -2.256221,-0.68613 -2.88453,0.52889 -0.472741,0.91418 -0.54161,6.49619 -0.0923,7.48229 0.58152,1.27629 2.04746,1.55769 3.02455,0.5806 z"
         style="fill:#ffffff;fill-opacity:1;stroke-width:0.0700042"
         id="path5133" />
      <text
         xml:space="preserve"
         transform="matrix(0.26458333,0,0,0.26458333,49.255066,1.0987975)"
         id="text1738-8"
         style="font-style:normal;font-weight:normal;font-size:40px;line-height:1.25;font-family:sans-serif;white-space:pre;shape-inside:url(#rect1740-3);fill:#ffffff;fill-opacity:1;stroke:none"><tspan
           x="15.648438"
           y="570.62993"
           id="tspan15257"><tspan
             style="font-family:'Apple SD Gothic Neo';-inkscape-font-specification:'Apple SD Gothic Neo, Normal'"
             id="tspan15255">SCISSORS</tspan></tspan></text>
    </g>
  </g>
</svg>
